HIERARCHY
ROOT Hips
{
	OFFSET 0.00000 0.00000 0.00000
	CHANNELS 6 Xposition Yposition Zposition Zrotation Yrotation Xrotation 
	JOINT LHipJoint
	{
		OFFSET 0 0 0
		CHANNELS 3 Zrotation Yrotation Xrotation
		JOINT LeftHip
		{
			OFFSET 1.60223 -1.58443 0.78595
			CHANNELS 3 Zrotation Yrotation Xrotation
			JOINT LeftKnee
			{
				OFFSET 2.21690 -6.09089 0.00000
				CHANNELS 3 Zrotation Yrotation Xrotation
				JOINT LeftAnkle
				{
					OFFSET 2.34805 -6.45122 0.00000
					CHANNELS 3 Zrotation Yrotation Xrotation
					JOINT LeftToe
					{
						OFFSET 0.35452 -0.97402 1.38549
						CHANNELS 3 Zrotation Yrotation Xrotation
						End Site
						{
							OFFSET 0.00000 -0.00000 0.82816
						}
					}
				}
			}
		}
	}
	JOINT RHipJoint
	{
		OFFSET 0 0 0
		CHANNELS 3 Zrotation Yrotation Xrotation
		JOINT RightHip
		{
			OFFSET -1.56524 -1.58443 0.78595
			CHANNELS 3 Zrotation Yrotation Xrotation
			JOINT RightKnee
			{
				OFFSET -2.15558 -5.92241 0.00000
				CHANNELS 3 Zrotation Yrotation Xrotation
				JOINT RightAnkle
				{
					OFFSET -2.35077 -6.45870 0.00000
					CHANNELS 3 Zrotation Yrotation Xrotation
					JOINT RightToe
					{
						OFFSET -0.26910 -0.73935 1.33295
						CHANNELS 3 Zrotation Yrotation Xrotation
						End Site
						{
							OFFSET -0.00000 -0.00000 0.75962
						}
					}
				}
			}
		}
	}
	JOINT lowerback
	{
		OFFSET 0 0 0
		CHANNELS 3 Zrotation Yrotation Xrotation
		JOINT Chest
		{
			OFFSET -0.05489 1.97104 -0.02993
			CHANNELS 3 Zrotation Yrotation Xrotation
			JOINT Chest2
			{
				OFFSET -0.00702 1.94230 0.13626
				CHANNELS 3 Zrotation Yrotation Xrotation
				JOINT lowerneck
				{
					OFFSET 0 0 0
					CHANNELS 3 Zrotation Yrotation Xrotation
					JOINT Neck
					{
						OFFSET -0.07858 1.62869 -0.02510
						CHANNELS 3 Zrotation Yrotation Xrotation
						JOINT Head
						{
							OFFSET 0.13978 1.59213 -0.29859
							CHANNELS 3 Zrotation Yrotation Xrotation
							End Site
							{
								OFFSET 0.05353 1.64420 -0.10000
							}
						}
					}
				}
				JOINT LeftCollar
				{
					OFFSET 0 0 0
					CHANNELS 3 Zrotation Yrotation Xrotation
					JOINT LeftShoulder
					{
						OFFSET 3.48263 1.15278 0.52941
CHANNELS 3 Zrotation Xrotation Yrotation
						JOINT LeftElbow
						{
OFFSET 0 -4.592070 -0.000000
CHANNELS 3 Zrotation Xrotation Yrotation
							JOINT LeftWrist
							{
OFFSET 0 -2.981090 -0.000000
CHANNELS 3 Zrotation Xrotation Yrotation
								JOINT lhand
								{
									OFFSET 0 0 0
CHANNELS 3 Zrotation Xrotation Yrotation
									JOINT LFingers
									{
OFFSET 0 -0.480200 -0.000000
CHANNELS 3 Zrotation Xrotation Yrotation
										End Site
										{
OFFSET 0 -0.387150 -0.000000
										}
									}
								}
								JOINT LThumb
								{
OFFSET 0 0.000000 0.000000
CHANNELS 3 Zrotation Xrotation Yrotation
									End Site
									{
OFFSET 0 -0.393060 0.393060
									}
								}
							}
						}
					}
				}
				JOINT RightCollar
				{
					OFFSET 0 0 0
					CHANNELS 3 Zrotation Yrotation Xrotation
					JOINT RightShoulder
					{
						OFFSET -3.52496 1.12722 0.24548
CHANNELS 3 Zrotation Xrotation Yrotation
						JOINT RightElbow
						{
OFFSET 0 -4.765080 -0.000000
CHANNELS 3 Zrotation Xrotation Yrotation
							JOINT RightWrist
							{
OFFSET 0 -2.789020 -0.000000
CHANNELS 3 Zrotation Xrotation Yrotation
								JOINT rhand
								{
									OFFSET 0 0 0
CHANNELS 3 Zrotation Xrotation Yrotation
									JOINT RFingers
									{
OFFSET 0 -0.721300 -0.000000
CHANNELS 3 Zrotation Xrotation Yrotation
										End Site
										{
OFFSET 0 -0.581530 -0.000000
										}
									}
								}
								JOINT RThumb
								{
OFFSET 0 0.000000 0.000000
CHANNELS 3 Zrotation Xrotation Yrotation
									End Site
									{
OFFSET 0 -0.590410 0.590410
									}
								}
							}
						}
					}
				}
			}
		}
	}
}
MOTION
Frames: 4
Frame Time: 0.008333333333333333
20.229500 16.054500 -0.871200 -175.278000 -87.324000 -179.638000 0.000000 0.000000 0.000000 -16.982700 -4.742700 -18.026000 3.786000 11.870100 35.273800 1.714300 -11.348400 -23.625100 2.983800 -10.668800 -31.171000 0.000000 0.000000 0.000000 22.546600 2.984100 -7.870800 -0.941300 -6.179500 17.306100 4.792900 -35.869400 -22.069700 -6.140300 -14.563000 45.542300 -0.205000 1.890500 -2.213100 -1.315800 2.376700 -4.947000 -1.263900 1.120500 -3.803900 -6.601400 -3.436500 -2.943300 7.895400 -5.034700 9.016400 3.270100 -2.437800 3.523100 -0.000000 0.000000 0.000000 -6.116200 13.003700 -10.167900 30.498800 -41.317100 11.737600 29.314200 34.273100 -41.027500 0.000000 0.000000 0.000000 -7.125000 0.000000 0.000000 -12.668300 74.607500 8.885000 -0.000000 0.000000 0.000000 8.074300 13.405600 11.551900 -43.184000 -49.847200 -20.841300 6.744100 -3.260600 -45.485400 0.000000 0.000000 0.000000 7.125000 0.000000 -0.000000 21.351500 -13.053900 27.338800
20.226904 16.027205 -0.845529 -179.558681 -87.846441 -176.428424 0.000000 0.000000 0.000000 -17.365969 -5.812808 -16.692509 3.862343 11.974926 35.643197 1.789386 -10.584839 -24.057291 3.037208 -10.755091 -31.458257 0.000000 0.000000 0.000000 22.336982 1.295673 -6.674035 -0.854662 -5.895724 16.482287 4.307692 -34.414533 -21.589297 -6.299775 -14.712638 46.173154 0.193880 1.465388 -1.434267 -1.115043 1.841109 -4.500344 -1.287408 0.853514 -3.783363 -7.921818 -3.232201 -4.004760 9.142380 -4.767733 9.615620 3.870908 -2.270404 3.918134 0.000000 0.000000 0.000000 -6.259878 12.997931 -8.417495 29.527698 -40.484808 11.101815 23.517810 32.618076 -44.200974 0.000000 0.000000 0.000000 -7.125000 0.000000 0.000000 -27.521376 75.231967 19.923175 0.000000 0.000000 0.000000 8.467587 11.823041 14.441858 -45.976066 -51.237075 -22.997588 5.059321 -5.098795 -46.166337 0.000000 0.000000 0.000000 7.125000 0.000000 0.000000 20.629084 -13.789064 26.482020
20.221211 16.027146 -0.849754 -176.002736 -87.115996 -180.304544 0.000000 0.000000 0.000000 -17.266912 -6.476691 -15.838149 3.853474 11.962895 35.600840 1.914460 -9.263144 -24.822646 3.039679 -10.759007 -31.471226 0.000000 0.000000 0.000000 22.453157 1.262243 -6.323237 -0.853677 -5.892429 16.472689 4.175326 -34.120895 -22.193176 -6.124507 -14.547860 45.479109 0.590650 1.375772 -0.944957 -0.987166 1.730053 -4.580968 -1.391087 0.784301 -4.137795 -8.345458 -2.932150 -4.647718 9.967823 -4.401163 9.964353 4.212695 -2.051169 4.123931 0.000000 0.000000 0.000000 -5.571607 13.646734 -6.591634 28.539682 -39.608239 10.465941 18.694674 29.802007 -46.723307 0.000000 0.000000 0.000000 -7.125000 0.000000 0.000000 -40.042258 75.255524 29.546267 0.000000 0.000000 0.000000 9.029926 10.460517 17.616962 -47.699270 -52.024199 -24.348439 5.197311 -5.056251 -46.659241 0.000000 0.000000 0.000000 7.125000 0.000000 0.000000 20.712979 -14.246546 26.719129
20.221142 16.012892 -0.854234 -178.357098 -86.062504 -177.922244 0.000000 0.000000 0.000000 -17.347261 -5.474530 -16.061152 3.858034 11.969106 35.622659 1.936075 -9.249879 -24.964033 3.063650 -10.797356 -31.599550 0.000000 0.000000 0.000000 22.389165 1.063422 -6.813727 -0.888858 -6.009588 16.812294 3.885300 -32.804910 -19.545201 -6.727931 -15.098394 47.837559 -0.079915 1.528261 -0.990796 -0.609029 1.935455 -4.602253 -0.631314 0.919011 -4.163394 -8.129109 -2.824136 -4.535587 9.594740 -4.183100 9.338059 4.071236 -1.954685 3.885055 0.000000 0.000000 0.000000 -5.196113 14.180108 -5.477217 27.827666 -38.956926 10.015187 19.878005 30.871283 -46.978804 0.000000 0.000000 0.000000 -7.125000 0.000000 0.000000 -39.621810 75.873377 29.716371 0.000000 0.000000 0.000000 8.986323 9.654406 20.180093 -50.036024 -53.009775 -26.203014 5.182647 -5.494305 -46.334028 0.000000 0.000000 0.000000 7.125000 0.000000 0.000000 20.691315 -13.940189 26.610605
